<svg width="128" height="128" xmlns="http://www.w3.org/2000/svg">

    <g>
        <title>Layer 1</title>
        <text stroke="#000" xml:space="preserve" text-anchor="start" font-family="Noto Sans JP" font-size="36"
              id="svg_4" y="71.96251" x="12.24523" stroke-width="0" fill="#000000">Type...</text>
        <rect stroke="#ff0000" id="svg_5" height="37.75347" width="7.25067" y="40.45961" x="111.75439" fill="#ff0000"/>
        <line id="svg_8" y2="86.86388" x2="162.00901" y1="86.86388" x1="161.75899" stroke="#BBBBBB" fill="none"/>
        <line id="svg_11" y2="92.97408" x2="174.2486" y1="93.09908" x1="174.2486" fill="none"/>
        <line id="svg_12" y2="84.07647" x2="32.46793" y1="84.30144" x1="43.37906" fill="none"/>
        <path id="svg_14" d="m49.90324,83.96398c4.04949,6.4117 15.41057,-0.33746 16.19797,-0.7874" opacity="NaN"
              fill="none"/>
        <path id="svg_15"
              d="m8.95837,43.69402c18.44769,-10.46119 -6.74916,-10.12373 -6.82114,-10.17322c0.07198,0.04949 17.16984,9.04836 17.09786,8.99887c0.07198,0.04949 -24.44995,5.33633 -3.86503,-2.87515c20.58492,-8.21147 20.58492,-8.21147 20.51294,-8.26096c0.07198,0.04949 -11.51407,-3.55006 -11.58605,-3.59955"
              opacity="NaN" fill="none"/>
        <line id="svg_20" y2="40.43193" x2="135.95497" y1="40.76939" x1="135.95497" stroke="#666666" fill="none"/>
        <line id="svg_22" y2="99.37455" x2="117.95723" y1="99.37455" x1="118.06971" stroke="#666666" fill="none"/>
        <path stroke-dasharray="5,5" stroke="#999999" id="svg_35"
              d="m8.1351,42.36126l0,0c0,-4.94506 5.95527,-8.95382 13.30146,-8.95382l6.04612,0l0,0l29.02137,0l54.41505,0c3.52777,0 6.91105,0.94334 9.40556,2.62251c2.4945,1.67917 3.8959,3.95661 3.8959,6.33131l0,22.38456l0,0l0,13.43073l0,0c0,4.94506 -5.95526,8.95382 -13.30146,8.95382l-54.41505,0l-37.91284,22.76749l8.89147,-22.76749l-6.04612,0c-7.34619,0 -13.30146,-4.00876 -13.30146,-8.95382l0,0l0,-13.43073l0,0l0,-22.38456z"
              fill="none"/>
    </g>
</svg>